<svg xmlns="http://www.w3.org/2000/svg" viewBox="0 0 100 100" x="0px" y="0px"><path style="fill:rgba(255, 255, 255, 1);" d="m43 87.8c-.3 0-.6-.1-.8-.2l-1.3-.6c-8-3.6-23-10.3-20.2-29 1-6.5 3.7-11 6.4-15.3 4.1-6.7 8.4-13.6 6.7-29.2-.1-.8.3-1.6 1.1-2 .7-.4 1.6-.3 2.2.3 22.6 19.6 23 35.6 21.1 43.5-1.2 5-3.9 9.5-6.6 13.9-3.4 5.5-6.6 10.8-6.6 16.6 0 .7-.3 1.3-.9 1.7-.3.1-.7.3-1.1.3zm-4.9-69.7c.5 13.6-3.8 20.5-7.6 26.7-2.6 4.2-5 8.1-5.8 13.8-2.2 14.9 8.6 20.5 16.6 24.1.8-5.7 3.9-10.8 6.9-15.7 2.6-4.3 5.1-8.4 6.1-12.8 1.5-6.4 1.2-19.5-16.2-36.1z"/><path style="fill:rgba(255, 255, 255, 1);" d="m61.3 74.5c-.4 0-.8-.1-1.1-.3-.9-.6-1.2-1.9-.5-2.8 5.2-7.6 6.5-14.6 6.8-16 1.7-10.2-1.7-21.7-9.5-31.7-.7-.9-.5-2.1.3-2.8.9-.7 2.1-.5 2.8.3 8.5 10.8 12.2 23.5 10.3 34.8-.7 4.3-3 11.1-7.4 17.5-.4.7-1 1-1.7 1z"/><path style="fill:rgba(249, 105, 14, 1);" d="m63.2 88c-.6 0-1.2-.2-1.5-.7-.7-.9-.6-2.1.3-2.8 4.4-3.6 9.7-8.7 12.2-16.6.3-1.1 1.5-1.6 2.5-1.3 1.1.3 1.6 1.5 1.3 2.5-2.8 8.9-8.7 14.5-13.5 18.4-.4.4-.9.5-1.3.5z"/></svg>